<?xml version="1.0" encoding="UTF-8"?>
<svg version="1.1" xmlns="http://www.w3.org/2000/svg" width="1280" height="1280">
<path d="M0 0 C422.4 0 844.8 0 1280 0 C1280 422.4 1280 844.8 1280 1280 C857.6 1280 435.2 1280 0 1280 C0 857.6 0 435.2 0 0 Z " fill="#0C131D" transform="translate(0,0)"/>
<path d="M0 0 C422.4 0 844.8 0 1280 0 C1280 422.4 1280 844.8 1280 1280 C1068.8 1280 857.6 1280 640 1280 C640 1269.77 640 1259.54 640 1249 C840.97 1249 1041.94 1249 1249 1249 C1249 847.06 1249 445.12 1249 31 C847.06 31 445.12 31 31 31 C31 231.97 31 432.94 31 640 C20.77 640 10.54 640 0 640 C0 428.8 0 217.6 0 0 Z " fill="#32BEDF" transform="translate(0,0)"/>
<path d="M0 0 C120.27218935 0 120.27218935 0 142 18 C142.64453125 18.51949219 143.2890625 19.03898437 143.953125 19.57421875 C152.52830175 27.24166283 157.74338197 39.1962989 161 50 C161.21269531 50.69480469 161.42539062 51.38960937 161.64453125 52.10546875 C164.25866121 61.52762061 164.16768994 71.36328861 164.203125 81.06640625 C164.20882507 82.29930893 164.21452515 83.53221161 164.22039795 84.80247498 C164.2298019 87.40191808 164.23636349 90.00137285 164.24023438 92.60083008 C164.24991107 96.52642235 164.28096815 100.45148398 164.3125 104.37695312 C164.40951406 127.25401406 163.69692679 150.97979056 146.69140625 168.359375 C140.28303969 174.29421694 140.28303969 174.29421694 136 175 C136 175.66 136 176.32 136 177 C136.804375 177.20625 137.60875 177.4125 138.4375 177.625 C150.57966791 182.31145077 158.3514913 191.4358228 163.75390625 203.03125 C169.41325545 216.514339 170.31668267 230.47720355 170.30078125 244.94921875 C170.30468454 246.45693577 170.30902244 247.96465172 170.31376648 249.47236633 C170.32117086 252.61467062 170.32098087 255.75686246 170.31567383 258.89916992 C170.31104689 262.08258203 170.31794988 265.26561179 170.33618164 268.44897461 C170.49751068 296.88031424 170.58777504 327.52257962 149.875 349.75 C112.36592678 384.78385519 40.7578657 371 0 371 C0 248.57 0 126.14 0 0 Z " fill="#38B3DF" transform="translate(559,470)"/>
<path d="M0 0 C69.7711514 0 69.7711514 0 81.4140625 11.16015625 C96.36274034 28.50209532 96.36097412 51.02518191 96.31567383 72.70556641 C96.31251236 75.86265594 96.33606252 79.01880663 96.36132812 82.17578125 C96.42248968 101.83714943 95.62561736 122.61303887 81.4453125 137.6484375 C61.2879557 156.6484341 21.92471691 149 0 149 C0 99.83 0 50.66 0 0 Z " fill="#0C141E" transform="translate(596,660)"/>
<path d="M0 0 C64.76121495 0 64.76121495 0 78.09765625 12.90234375 C83.56882214 18.93523099 86.03176745 25.17257806 88 33 C88.33700928 34.14533203 88.67401855 35.29066406 89.02124023 36.47070312 C90.31635438 41.68410542 90.32406025 46.80794268 90.3359375 52.15625 C90.3459227 53.74705383 90.3459227 53.74705383 90.35610962 55.36999512 C90.36619852 57.60895058 90.37092781 59.84793589 90.37060547 62.08691406 C90.37495122 65.46211245 90.41123683 68.83597229 90.44921875 72.2109375 C90.53925901 89.51080025 89.65238124 107.66792685 77.5 121.25 C57.61820752 139.74643218 22.63879746 133 0 133 C0 89.11 0 45.22 0 0 Z " fill="#0C141E" transform="translate(596,501)"/>
</svg>
